<svg width="21" height="20" viewBox="0 0 21 20" fill="none" xmlns="http://www.w3.org/2000/svg">
<g id="Frame" clip-path="url(#clip0_226_97)">
<g id="Group">
<path id="Vector" d="M20.1783 10.7281C20.2092 11.4665 19.946 12.187 19.4463 12.7316C18.9467 13.2761 18.2514 13.6002 17.5131 13.6328C17.4699 13.6348 17.4268 13.6358 17.3838 13.6358C17.1876 13.6357 16.992 13.6144 16.8004 13.5725C16.2318 14.4504 15.4862 15.2 14.6113 15.7733C13.7365 16.3465 12.7516 16.7309 11.7196 16.9018C11.5976 17.2603 11.3541 17.565 11.0312 17.7631C10.7084 17.9612 10.3265 18.0402 9.95152 17.9866C9.57657 17.933 9.23213 17.75 8.97776 17.4693C8.72339 17.1887 8.57506 16.828 8.55843 16.4496C8.54179 16.0712 8.65789 15.6988 8.88666 15.397C9.11542 15.0951 9.44247 14.8826 9.81128 14.7963C10.1801 14.7099 10.5675 14.7552 10.9064 14.9242C11.2454 15.0931 11.5147 15.3753 11.6678 15.7217C13.1206 15.453 14.433 14.6831 15.3764 13.546C16.3197 12.409 16.8342 10.9769 16.8301 9.49951C16.8301 6.00908 13.9904 3.16943 10.5 3.16943C7.00957 3.16943 4.16992 6.00908 4.16992 9.49951C4.16973 10.5788 4.44557 11.6402 4.97121 12.5829C4.98903 12.614 5.0024 12.6474 5.01094 12.6822C5.06171 12.8234 5.05628 12.9786 4.99578 13.1158C4.93528 13.2531 4.82433 13.3618 4.6859 13.4195C4.34694 13.5621 3.98288 13.6356 3.61512 13.6355C3.57184 13.6355 3.52846 13.6345 3.485 13.6325C2.74699 13.5995 2.05217 13.2752 1.55291 12.7307C1.05365 12.1862 0.790683 11.4659 0.82168 10.7278C0.834141 10.4335 0.827188 10.1709 0.820391 9.91693C0.814063 9.67783 0.807461 9.43057 0.818321 9.17256C0.85073 8.45188 1.16074 7.77169 1.68342 7.27446C2.2061 6.77723 2.9009 6.50152 3.62231 6.5051C4.78074 3.85463 7.42734 1.99756 10.5 1.99756C13.5727 1.99756 16.2193 3.85463 17.3777 6.50514C18.0992 6.50102 18.7942 6.77649 19.317 7.27373C19.8398 7.77097 20.1497 8.45135 20.1816 9.17213C20.1925 9.43053 20.186 9.67775 20.1796 9.91686C20.1729 10.1708 20.1659 10.4336 20.1783 10.7281ZM15.4143 9.49951C15.414 10.2524 15.2408 10.9951 14.908 11.6705C14.5753 12.3458 14.0919 12.9357 13.4951 13.3947C12.8983 13.8536 12.204 14.1694 11.4659 14.3176C10.7278 14.4658 9.96544 14.4425 9.23774 14.2495L7.24863 15.3982C7.14827 15.4562 7.03297 15.4831 6.91732 15.4755C6.80167 15.4679 6.69087 15.4262 6.59892 15.3557C6.50697 15.2851 6.43801 15.1889 6.40076 15.0791C6.36351 14.9694 6.35964 14.8511 6.38965 14.7391L6.89801 12.8427C6.05614 11.9327 5.58771 10.7392 5.58594 9.49951C5.58594 6.78904 7.79027 4.58412 10.5 4.58412C13.2097 4.58412 15.4143 6.78904 15.4143 9.49951ZM9.13379 9.49951C9.13379 9.34411 9.07206 9.19508 8.96217 9.08519C8.85229 8.97531 8.70325 8.91357 8.54785 8.91357H8.54688C8.43104 8.91379 8.31786 8.94834 8.22164 9.01285C8.12543 9.07737 8.0505 9.16895 8.00632 9.27604C7.96214 9.38312 7.95069 9.5009 7.97342 9.61449C7.99616 9.72808 8.05205 9.83238 8.13404 9.91422C8.21602 9.99605 8.32043 10.0517 8.43406 10.0743C8.54769 10.0968 8.66545 10.0851 8.77245 10.0407C8.87945 9.99636 8.9709 9.92126 9.03523 9.82493C9.09957 9.72859 9.13391 9.61535 9.13391 9.49951H9.13379ZM11.0861 9.49951C11.086 9.48033 11.085 9.46116 11.0829 9.44209C11.0811 9.42294 11.0782 9.4039 11.0744 9.38506C11.0709 9.36628 11.0662 9.34776 11.0603 9.32959C11.0548 9.31123 11.0482 9.29326 11.0412 9.27529C11.0341 9.25732 11.0255 9.24053 11.0166 9.22373C11.0076 9.20684 10.9979 9.19041 10.9873 9.17451C10.9766 9.15845 10.9651 9.14293 10.9529 9.12803C10.9408 9.1131 10.9279 9.09888 10.9142 9.08545C10.9009 9.07178 10.8865 9.05889 10.8716 9.04639C10.8568 9.03467 10.8411 9.02295 10.8251 9.0124C10.8092 9.00181 10.7928 8.99203 10.7759 8.98311C10.7591 8.97412 10.7416 8.96592 10.7239 8.9585C10.7064 8.95113 10.6884 8.94474 10.6701 8.93936C10.6335 8.92762 10.5958 8.92002 10.5576 8.9167C10.5002 8.91117 10.4423 8.91394 10.3857 8.9249C10.3669 8.92875 10.3482 8.93357 10.3299 8.93936C10.3116 8.94473 10.2936 8.95112 10.276 8.9585C10.2584 8.96592 10.2408 8.97412 10.224 8.98311C10.2072 8.99209 10.1908 9.00186 10.1748 9.0124C10.1427 9.03368 10.1129 9.05816 10.0857 9.08545C10.072 9.09889 10.0591 9.1131 10.047 9.12803C10.0349 9.14294 10.0236 9.15845 10.0131 9.17451C10.0024 9.1904 9.99244 9.20682 9.9834 9.22373C9.97439 9.24047 9.96629 9.25768 9.95914 9.27529C9.95173 9.29305 9.94521 9.31117 9.93961 9.32959C9.93418 9.34756 9.92949 9.36631 9.92559 9.38506C9.92173 9.40391 9.91885 9.42294 9.91695 9.44209C9.91504 9.46123 9.91422 9.48037 9.91422 9.49951C9.91422 9.51865 9.91504 9.53818 9.91695 9.55732C9.91888 9.57634 9.92176 9.59524 9.92559 9.61396C9.92949 9.63271 9.93418 9.65146 9.93961 9.66982C9.94521 9.68811 9.95173 9.7061 9.95914 9.72373C9.96629 9.74147 9.97438 9.75881 9.9834 9.77568C9.99234 9.79248 10.0025 9.80889 10.0131 9.8249C10.0236 9.84084 10.0349 9.85622 10.047 9.871C10.0592 9.88596 10.0721 9.9003 10.0857 9.91397C10.0994 9.92725 10.1135 9.94053 10.1287 9.95264C10.1434 9.96483 10.1588 9.97618 10.1748 9.98662C10.1908 9.99717 10.2072 10.0073 10.224 10.0163C10.2579 10.034 10.2934 10.0486 10.3299 10.0601C10.3482 10.0655 10.367 10.0702 10.3857 10.0741C10.4234 10.0818 10.4617 10.0856 10.5002 10.0854C10.6554 10.085 10.8042 10.0234 10.9142 9.91397C10.9412 9.88656 10.9657 9.85675 10.9873 9.8249C10.9978 9.80889 11.0076 9.79248 11.0166 9.77568C11.0255 9.75889 11.0338 9.74131 11.0412 9.72373C11.0486 9.70615 11.0548 9.68779 11.0603 9.66982C11.0661 9.65151 11.0708 9.63286 11.0744 9.61396C11.0782 9.59524 11.0811 9.57634 11.0829 9.55732C11.0849 9.53809 11.0859 9.51877 11.0859 9.49943L11.0861 9.49951ZM13.0392 9.49951C13.0392 9.34411 12.9774 9.19508 12.8676 9.08519C12.7577 8.97531 12.6086 8.91357 12.4532 8.91357H12.4521C12.3363 8.9138 12.2231 8.94835 12.1269 9.01287C12.0307 9.07739 11.9558 9.16898 11.9116 9.27607C11.8674 9.38315 11.856 9.50093 11.8787 9.61452C11.9014 9.7281 11.9573 9.8324 12.0393 9.91423C12.1213 9.99606 12.2257 10.0518 12.3393 10.0743C12.453 10.0968 12.5707 10.0851 12.6777 10.0407C12.7847 9.99636 12.8762 9.92126 12.9405 9.82492C13.0048 9.72859 13.0392 9.61535 13.0392 9.49951Z" fill="#9B9B9B"/>
</g>
</g>
<defs>
<clipPath id="clip0_226_97">
<rect width="20" height="20" fill="white" transform="translate(0.5)"/>
</clipPath>
</defs>
</svg>
