<svg width="21" height="20" viewBox="0 0 21 20" fill="none" xmlns="http://www.w3.org/2000/svg">
<g id="Frame" clip-path="url(#clip0_226_112)">
<g id="Group">
<path id="Vector" d="M10.4996 0C4.97746 0 0.5 4.47746 0.5 9.99958C0.5 15.5217 4.97746 20 10.4996 20C16.0217 20 20.5 15.5217 20.5 9.99958C20.5 4.47746 16.0217 0 10.4996 0ZM12.5813 15.498C12.0666 15.7012 11.6568 15.8552 11.3495 15.9619C11.0048 16.0745 10.6437 16.1286 10.2812 16.1219C9.65809 16.1219 9.17301 15.9695 8.82762 15.6656C8.48222 15.3617 8.31037 14.9765 8.31037 14.5084C8.31037 14.3263 8.32307 14.1401 8.34846 13.9505C8.37986 13.7345 8.42139 13.52 8.47291 13.3079L9.11714 11.0324C9.17386 10.814 9.22296 10.6066 9.2619 10.4135C9.30085 10.2188 9.31947 10.0402 9.31947 9.87767C9.31947 9.58815 9.25937 9.38497 9.14 9.27069C9.01894 9.1564 8.79122 9.10053 8.45175 9.10053C8.28582 9.10053 8.11481 9.12508 7.93958 9.17672C7.76603 9.23005 7.61534 9.27831 7.49175 9.32571L7.6619 8.62476C8.08349 8.45291 8.4873 8.30561 8.87249 8.1837C9.22472 8.06586 9.59315 8.00359 9.96455 7.99915C10.5834 7.99915 11.0608 8.14984 11.3969 8.44783C11.7313 8.74667 11.8998 9.13524 11.8998 9.6127C11.8998 9.71175 11.8879 9.88614 11.8651 10.135C11.8452 10.3676 11.8021 10.5976 11.7364 10.8216L11.0956 13.0904C11.0381 13.2956 10.9909 13.5035 10.9542 13.7134C10.9193 13.8881 10.8986 14.0654 10.8924 14.2434C10.8924 14.5448 10.9593 14.7505 11.0947 14.8597C11.2285 14.9689 11.463 15.0239 11.7948 15.0239C11.9514 15.0239 12.1267 14.996 12.3248 14.9418C12.5212 14.8876 12.6634 14.8394 12.7531 14.7979L12.5813 15.498ZM12.4678 6.2891C12.1764 6.56388 11.7889 6.71343 11.3885 6.70561C10.9686 6.70561 10.6062 6.56677 10.3049 6.2891C10.1615 6.16303 10.0471 6.00757 9.9692 5.8333C9.89134 5.65902 9.85193 5.47002 9.85365 5.27915C9.85365 4.8855 10.006 4.54688 10.3049 4.26667C10.5969 3.9897 10.9861 3.83859 11.3885 3.84593C11.8092 3.84593 12.1698 3.98561 12.4678 4.26667C12.7667 4.54688 12.9165 4.8855 12.9165 5.27915C12.9165 5.6745 12.7667 6.01143 12.4678 6.2891Z" fill="#9B9B9B"/>
</g>
</g>
<defs>
<clipPath id="clip0_226_112">
<rect width="20" height="20" fill="white" transform="translate(0.5)"/>
</clipPath>
</defs>
</svg>
